<?xml version="1.0" encoding="UTF-8"?>
<svg width="110px" height="44px" viewBox="0 0 110 44" version="1.1" xmlns="http://www.w3.org/2000/svg" xmlns:xlink="http://www.w3.org/1999/xlink">
    <!-- Generator: Sketch 62 (91390) - https://sketch.com -->
    <title>JSKitLogo</title>
    <desc>Created with Sketch.</desc>
    <g id="JSKitLogo" stroke="none" stroke-width="1" fill="none" fill-rule="evenodd">
        <g id="Group" transform="translate(10.000000, 10.000000)" fill="#FFFFFF">
            <path d="M37.777341,20.2941176 C38.6870701,20.2941176 39.4746596,20.144224 40.1401095,19.8444366 C40.8055595,19.5446492 41.3530816,19.1366052 41.7826758,18.6203047 C42.2122701,18.1040043 42.53236,17.4961021 42.7429454,16.7965982 C42.9535308,16.0970943 43.0588235,15.3559532 43.0588235,14.5731751 L43.0588235,14.5731751 L43.0588235,3.70588235 L39.3440966,3.70588235 L39.3440966,14.2733877 C39.3440966,15.3559532 39.1714165,16.101258 38.8260564,16.5093019 C38.4806963,16.9173459 37.9710796,17.1213678 37.2972062,17.1213678 C36.8760354,17.1213678 36.4632879,16.988129 36.0589639,16.7216513 C35.6546399,16.4551736 35.3008564,16.0471297 34.9976134,15.4975195 L34.9976134,15.4975195 L32.4705882,17.3462084 C33.0433806,18.3454996 33.7551593,19.0866407 34.6059245,19.5696315 C35.4566896,20.0526223 36.5138284,20.2941176 37.777341,20.2941176 Z M51.6424689,20.2941176 C52.6232637,20.2941176 53.5025969,20.1562826 54.2804687,19.8806126 C55.0583404,19.6049426 55.7136128,19.2373825 56.2462858,18.7779325 C56.7789588,18.3184824 57.1848049,17.7838496 57.4638241,17.1740341 C57.7428433,16.5642186 57.8823529,15.9168117 57.8823529,15.2318134 C57.8823529,14.0790115 57.590651,13.1517577 57.0072473,12.4500522 C56.4238435,11.7483467 55.6248339,11.1970066 54.6102186,10.796032 L54.6102186,10.796032 L52.4795265,9.94396102 C52.1244112,9.79359554 51.7946612,9.65576053 51.4902766,9.53045597 C51.185892,9.40515141 50.9195555,9.27149321 50.6912671,9.12948138 C50.4629786,8.98746954 50.2854209,8.82875044 50.158594,8.65332405 C50.0317671,8.47789767 49.9683537,8.26487992 49.9683537,8.0142708 C49.9683537,7.54646711 50.158594,7.18308388 50.5390748,6.92412113 C50.9195555,6.66515837 51.4310907,6.53567699 52.0736804,6.53567699 C52.7331803,6.53567699 53.3334944,6.6484511 53.8746225,6.8739993 C54.4157507,7.09954751 54.9568789,7.42116255 55.498007,7.83884441 L55.498007,7.83884441 L57.4004107,5.5081796 C56.69018,4.80647407 55.865805,4.27184128 54.9272859,3.90428124 C53.9887668,3.5367212 53.0375649,3.35294118 52.0736804,3.35294118 C51.2112574,3.35294118 50.420703,3.47824574 49.7020172,3.72885486 C48.9833313,3.97946397 48.3618795,4.32613992 47.8376616,4.7688827 C47.3134437,5.21162548 46.9075975,5.72955099 46.6201232,6.32265924 C46.3326489,6.91576749 46.1889117,7.54646711 46.1889117,8.21475809 C46.1889117,8.81621998 46.2819181,9.35502959 46.4679309,9.83118691 C46.6539437,10.3073442 46.90337,10.7250261 47.2162097,11.0842325 C47.5290494,11.4434389 47.8841648,11.7567003 48.2815557,12.0240167 C48.6789467,12.2913331 49.0890204,12.5085277 49.5117768,12.6756004 L49.5117768,12.6756004 L51.6678343,13.5777932 C52.0229496,13.7281587 52.348472,13.8659937 52.6444015,13.9912983 C52.940331,14.1166029 53.1939848,14.2502611 53.405363,14.3922729 C53.6167412,14.5342847 53.7773886,14.6971806 53.8873052,14.8809607 C53.9972219,15.0647407 54.0521802,15.2819353 54.0521802,15.5325444 C54.0521802,16.0170553 53.8619398,16.4013227 53.4814591,16.6853463 C53.1009784,16.96937 52.5218022,17.1113818 51.7439304,17.1113818 C51.05061,17.1113818 50.3446068,16.9526627 49.625921,16.6352245 C48.9072352,16.3177863 48.2519628,15.9084581 47.6601039,15.4072398 L47.6601039,15.4072398 L45.5294118,17.9383919 C46.3749245,18.7236338 47.3345815,19.3125653 48.4083827,19.7051862 C49.4821838,20.0978072 50.5602126,20.2941176 51.6424689,20.2941176 Z M64.3366916,19.9411765 L64.3366916,15.5835438 L66.2138447,13.0934681 L70.1410465,19.9411765 L74.1176471,19.9411765 L68.3626909,10.1800794 L73.2284693,3.70588235 L69.2271693,3.70588235 L64.4354891,10.3543847 L64.3366916,10.3543847 L64.3366916,3.70588235 L60.7058824,3.70588235 L60.7058824,19.9411765 L64.3366916,19.9411765 Z M77.2941176,5.82352941 C77.9252595,5.82352941 78.4359862,5.64167628 78.8262976,5.27797001 C79.216609,4.91426374 79.4117647,4.44482891 79.4117647,3.86966551 C79.4117647,3.29450211 79.216609,2.82929642 78.8262976,2.47404844 C78.4359862,2.11880046 77.9252595,1.94117647 77.2941176,1.94117647 C76.6795848,1.94117647 76.1730104,2.11880046 75.7743945,2.47404844 C75.3757785,2.82929642 75.1764706,3.29450211 75.1764706,3.86966551 C75.1764706,4.44482891 75.3757785,4.91426374 75.7743945,5.27797001 C76.1730104,5.64167628 76.6795848,5.82352941 77.2941176,5.82352941 Z M79.0588235,19.9411765 L79.0588235,7.58823529 L75.5294118,7.58823529 L75.5294118,19.9411765 L79.0588235,19.9411765 Z M87.2189449,20.2941176 C87.8257205,20.2941176 88.3566492,20.2444853 88.811731,20.1452206 C89.2668127,20.0459559 89.6629024,19.9466912 90,19.8474265 L90,19.8474265 L89.4185067,17.1920956 C89.2499579,17.2582721 89.0603405,17.3161765 88.8496545,17.3658088 C88.6389685,17.4154412 88.4324962,17.4402574 88.2302377,17.4402574 C87.7414461,17.4402574 87.3495702,17.2872243 87.0546098,16.9811581 C86.7596494,16.6750919 86.6121692,16.1746324 86.6121692,15.4797794 L86.6121692,15.4797794 L86.6121692,10.5413603 L89.6207652,10.5413603 L89.6207652,7.6875 L86.6121692,7.6875 L86.6121692,4.41176471 L83.5277263,4.41176471 L83.0979268,7.6875 L81.1764706,7.83639706 L81.1764706,10.5413603 L82.8956683,10.5413603 L82.8956683,15.5294118 C82.8956683,16.2408088 82.975729,16.8901654 83.1358503,17.4774816 C83.2959717,18.0647978 83.5487949,18.5652574 83.8943199,18.9788603 C84.2398449,19.3924632 84.6864992,19.7150735 85.2342828,19.9466912 C85.7820664,20.1783088 86.4436204,20.2941176 87.2189449,20.2941176 Z" id="JSKit" fill-rule="nonzero"></path>
            <path d="M7.05882353,0 L15.5294118,0 C16.3091079,0 16.9411765,0.632068588 16.9411765,1.41176471 L16.9411765,9.88235294 C16.9411765,10.6620491 16.3091079,11.2941176 15.5294118,11.2941176 L7.05882353,11.2941176 C6.27912741,11.2941176 5.64705882,10.6620491 5.64705882,9.88235294 L5.64705882,1.41176471 C5.64705882,0.632068588 6.27912741,0 7.05882353,0 Z" id="Rectangle"></path>
            <path d="M1.41176471,12.7058824 L9.88235294,12.7058824 C10.6620491,12.7058824 11.2941176,13.3379509 11.2941176,14.1176471 L11.2941176,22.5882353 C11.2941176,23.3679314 10.6620491,24 9.88235294,24 L1.41176471,24 C0.632068588,24 0,23.3679314 0,22.5882353 L0,14.1176471 C0,13.3379509 0.632068588,12.7058824 1.41176471,12.7058824 Z" id="Rectangle-Copy-2"></path>
            <path d="M19.7647059,0 L28.2352941,0 C29.0149902,0 29.6470588,0.632068588 29.6470588,1.41176471 L29.6470588,9.88235294 C29.6470588,10.6620491 29.0149902,11.2941176 28.2352941,11.2941176 L19.7647059,11.2941176 C18.9850098,11.2941176 18.3529412,10.6620491 18.3529412,9.88235294 L18.3529412,1.41176471 C18.3529412,0.632068588 18.9850098,0 19.7647059,0 Z" id="Rectangle-Copy"></path>
            <path d="M14.1176471,12.7058824 L22.5882353,12.7058824 C23.3679314,12.7058824 24,13.3379509 24,14.1176471 L24,22.5882353 C24,23.3679314 23.3679314,24 22.5882353,24 L14.1176471,24 C13.3379509,24 12.7058824,23.3679314 12.7058824,22.5882353 L12.7058824,14.1176471 C12.7058824,13.3379509 13.3379509,12.7058824 14.1176471,12.7058824 Z" id="Rectangle-Copy-3"></path>
        </g>
    </g>
</svg>